<svg width="286" height="82" viewBox="0 0 286 82" fill="none" xmlns="http://www.w3.org/2000/svg">
<path d="M80 41C80 60.7144 63.3815 77 42.5 77C21.6185 77 5 60.7144 5 41C5 21.2856 21.6185 5 42.5 5C63.3815 5 80 21.2856 80 41Z" stroke="url(#paint0_linear)" stroke-width="10"/>
<path d="M137.656 51.0625C137.656 49.2917 137.031 47.9375 135.781 47C134.531 46.0417 132.281 45.0417 129.031 44C125.781 42.9375 123.208 41.8958 121.312 40.875C116.146 38.0833 113.562 34.3229 113.562 29.5938C113.562 27.1354 114.25 24.9479 115.625 23.0312C117.021 21.0938 119.01 19.5833 121.594 18.5C124.198 17.4167 127.115 16.875 130.344 16.875C133.594 16.875 136.49 17.4688 139.031 18.6562C141.573 19.8229 143.542 21.4792 144.938 23.625C146.354 25.7708 147.062 28.2083 147.062 30.9375H137.688C137.688 28.8542 137.031 27.2396 135.719 26.0938C134.406 24.9271 132.562 24.3438 130.188 24.3438C127.896 24.3438 126.115 24.8333 124.844 25.8125C123.573 26.7708 122.938 28.0417 122.938 29.625C122.938 31.1042 123.677 32.3438 125.156 33.3438C126.656 34.3438 128.854 35.2812 131.75 36.1562C137.083 37.7604 140.969 39.75 143.406 42.125C145.844 44.5 147.062 47.4583 147.062 51C147.062 54.9375 145.573 58.0312 142.594 60.2812C139.615 62.5104 135.604 63.625 130.562 63.625C127.062 63.625 123.875 62.9896 121 61.7188C118.125 60.4271 115.927 58.6667 114.406 56.4375C112.906 54.2083 112.156 51.625 112.156 48.6875H121.562C121.562 53.7083 124.562 56.2188 130.562 56.2188C132.792 56.2188 134.531 55.7708 135.781 54.875C137.031 53.9583 137.656 52.6875 137.656 51.0625ZM153.312 58.5625C153.312 57.125 153.792 55.9583 154.75 55.0625C155.729 54.1667 156.948 53.7188 158.406 53.7188C159.885 53.7188 161.104 54.1667 162.062 55.0625C163.042 55.9583 163.531 57.125 163.531 58.5625C163.531 59.9792 163.052 61.1354 162.094 62.0312C161.135 62.9062 159.906 63.3438 158.406 63.3438C156.927 63.3438 155.708 62.9062 154.75 62.0312C153.792 61.1354 153.312 59.9792 153.312 58.5625ZM188.906 46.3438H181.438V63H172.062V17.5H188.969C194.344 17.5 198.49 18.6979 201.406 21.0938C204.323 23.4896 205.781 26.875 205.781 31.25C205.781 34.3542 205.104 36.9479 203.75 39.0312C202.417 41.0938 200.385 42.7396 197.656 43.9688L207.5 62.5625V63H197.438L188.906 46.3438ZM181.438 38.75H189C191.354 38.75 193.177 38.1562 194.469 36.9688C195.76 35.7604 196.406 34.1042 196.406 32C196.406 29.8542 195.792 28.1667 194.562 26.9375C193.354 25.7083 191.49 25.0938 188.969 25.0938H181.438V38.75ZM230.469 63V35.8125H225.438V29.1875H230.469V27.625C230.51 23.375 231.812 20.1042 234.375 17.8125C236.958 15.5 240.594 14.3438 245.281 14.3438C248.094 14.3438 251.51 14.9583 255.531 16.1875L254.219 23.6562C252.177 23.0521 250.594 22.6667 249.469 22.5C248.344 22.3125 247.135 22.2188 245.844 22.2188C241.635 22.2188 239.531 24.0833 239.531 27.8125V29.1875H246.188V35.8125H239.531V63H230.469ZM259.75 63H250.688V29.1875H259.75V63ZM278.031 20.875V29.1875H283.812V35.8125H278.031V52.6875C278.031 53.9375 278.271 54.8333 278.75 55.375C279.229 55.9167 280.146 56.1875 281.5 56.1875C282.5 56.1875 283.385 56.1146 284.156 55.9688V62.8125C282.385 63.3542 280.562 63.625 278.688 63.625C272.354 63.625 269.125 60.4271 269 54.0312V35.8125H264.062V29.1875H269V20.875H278.031Z" fill="white"/>
<defs>
<linearGradient id="paint0_linear" x1="42" y1="22" x2="42" y2="54" gradientUnits="userSpaceOnUse">
<stop stop-color="white"/>
<stop offset="1" stop-color="white"/>
</linearGradient>
</defs>
</svg>
